<?xml version="1.0" encoding="utf-8"?>
<!-- Generator: Adobe Illustrator 18.1.1, SVG Export Plug-In . SVG Version: 6.00 Build 0)  -->
<svg version="1.1" id="Layer_1" xmlns="http://www.w3.org/2000/svg" xmlns:xlink="http://www.w3.org/1999/xlink" x="0px" y="0px"
	 viewBox="0 0 338 338" enable-background="new 0 0 338 338" xml:space="preserve">
<circle fill="#FFFFFF" cx="168.3" cy="168.3" r="154.9"/>
<circle fill="#FFDB00" cx="169.3" cy="168.3" r="106.8"/>
<circle fill="none" stroke="#000000" stroke-width="12.5078" stroke-miterlimit="10" cx="168.3" cy="168.3" r="156.7"/>
<circle fill="none" stroke="#000000" stroke-width="12.5078" stroke-miterlimit="10" cx="168.3" cy="168.3" r="106.2"/>
<g>
	<path d="M56.8,127.6l-14.5,4.5l11.8,3.8l-2,6.4l-23.5-7.5l1.8-5.6l14.5-4.5L33,120.9l2-6.4l23.5,7.5L56.8,127.6z"/>
	<path d="M68.2,99.5c0.5,2.6,0.2,5.1-1.5,7.9c-1.7,2.8-3.7,4.3-6.3,5.1c-3.7,1.1-6.6-0.8-9.8-2.7c-3.2-1.9-6.2-3.6-7-7.4
		c-0.5-2.6-0.2-5.1,1.5-7.9c1.7-2.8,3.7-4.3,6.3-5.1c3.7-1.1,6.6,0.8,9.8,2.7C64.4,94,67.4,95.7,68.2,99.5z M52.1,95.6
		c-0.8,0.1-1.7,0.7-2.3,1.7c-0.6,1-0.7,2.1-0.4,2.8c0.3,0.9,0.8,1.7,4.7,4c3.9,2.3,4.7,2.4,5.7,2.2c0.8-0.1,1.7-0.7,2.3-1.7
		c0.6-1,0.7-2.1,0.4-2.9c-0.3-0.9-0.8-1.6-4.7-3.9C53.9,95.6,53,95.5,52.1,95.6z"/>
	<path d="M85.2,83.5l-10-2.9l-1.6,1.6l6.6,6.3l-4.6,4.8l-17.9-17l7.4-7.8c4.2-4.4,9.2-4,12.1-1.2c2.4,2.3,2.4,5.4,1.6,7.6l11.5,2.9
		L85.2,83.5z M69,72.6l-2.6,2.7l3.6,3.4l2.6-2.7c1.3-1.3,1.1-2.9,0.2-3.8C71.9,71.3,70.3,71.3,69,72.6z"/>
	<path d="M93.8,52.2l10.8,16L99,71.9l-10.8-16l-5.5,3.7l-3-4.5L96.3,44l3,4.5L93.8,52.2z"/>
	<path d="M127.8,56.7l-3.6-9.1l-6.6,2.6l3.6,9.1l-6.2,2.5l-9.1-22.9l6.2-2.5l3.5,8.8l6.6-2.6l-3.5-8.8l6.2-2.5l9.1,22.9L127.8,56.7z
		"/>
	<path d="M141,52.5l-3.9-24.4l18.2-2.9l0.9,5.3l-11.6,1.9l0.7,4.1l9.9-1.6l0.9,5.3l-9.9,1.6l0.7,4.3l11.6-1.9l0.9,5.3L141,52.5z"/>
	<path d="M179.5,50.1l-4.2-9.5l-2.2-0.1l-0.6,9.2l-6.7-0.4l1.5-24.6l10.7,0.7c6,0.4,9,4.4,8.8,8.5c-0.2,3.4-2.6,5.3-4.8,6.2
		l5.2,10.6L179.5,50.1z M177.4,30.7l-3.8-0.2l-0.3,5l3.8,0.2c1.8,0.1,3-1,3-2.3C180.3,32.1,179.3,30.8,177.4,30.7z"/>
	<path d="M207.1,56.1l-4.7-14.4l-3.6,11.9l-6.4-1.9l7.2-23.6l5.6,1.7l4.7,14.4l3.6-11.9l6.4,1.9l-7.2,23.6L207.1,56.1z"/>
	<path d="M235.8,71c-3.4-2.4-5.8-4.9-6.5-8.6l5.7-0.7c0.4,1.9,2.2,3.7,4,4.9c2.2,1.5,3.6,1.6,4.5,0.4c0.3-0.5,0.5-1,0.4-1.5
		c-0.1-0.5-0.4-1-1.1-1.6l-2.4-2.2c-1.8-1.6-2.9-3.3-3.2-4.9c-0.4-1.7,0.1-3.4,1.3-5.1C241,48,246,47.4,251,51
		c3.2,2.2,5.1,4.6,5.8,7.7l-5.6,0.7c-0.5-2.3-2.4-3.5-3.4-4.2c-1.9-1.3-3.4-0.9-4,0c-0.2,0.3-0.3,0.7-0.2,1.2c0.1,0.5,0.4,1,1.1,1.7
		l2.4,2.2c1.8,1.7,2.9,3.2,3.2,4.7c0.4,1.9-0.1,3.7-1.5,5.6C246,74.8,240.5,74.3,235.8,71z"/>
	<path d="M262.6,91.8c-2.7-0.2-4.9-1.3-7.2-3.7c-2.2-2.4-3.1-4.8-3.1-7.5c0-3.9,2.6-6.1,5.3-8.6c2.7-2.5,5.2-4.9,9.1-4.6
		c2.7,0.2,4.9,1.3,7.2,3.7c2.2,2.4,3.1,4.8,3.1,7.5c0,3.9-2.6,6.1-5.3,8.6C268.9,89.7,266.5,92.1,262.6,91.8z M270.9,77.4
		c0.1-0.8-0.2-1.8-1-2.7c-0.8-0.9-1.8-1.3-2.6-1.2c-1,0-1.8,0.3-5.1,3.4c-3.3,3-3.6,3.9-3.8,4.8c-0.1,0.8,0.2,1.8,1,2.7
		c0.8,0.9,1.9,1.2,2.6,1.2c0.9,0,1.8-0.3,5.1-3.4S270.8,78.4,270.9,77.4z"/>
	<path d="M271.1,109.4c-2.8-4.9-2.1-10.6,2.6-13.3l13.9-7.9l3.3,5.8l-13.8,7.9c-2,1.1-2.4,3-1.4,4.9c1.1,1.9,3,2.5,4.9,1.4l13.8-7.9
		l3.3,5.8l-13.9,7.9C279.2,116.7,273.9,114.3,271.1,109.4z"/>
	<path d="M279,124.8l23.5-7.4l2,6.4l-18.4,5.8l3.4,10.9l-5.2,1.6L279,124.8z"/>
</g>
<g>
	<path d="M36.2,218.6c-2.8-1.6-4.1-3.8-5-6.7c-1-3-0.8-5.6,0.3-8c1.6-3.5,4.9-4.5,8.5-5.6c3.5-1.1,6.8-2.3,10.1-0.4
		c2.3,1.3,3.9,3.2,4.9,6.3c2.1,6.6-0.9,10.7-4.6,12.6l-2-6.4c1.6-1.1,2.2-2.4,1.5-4.5c-0.4-1.2-1.1-1.9-1.8-2.2
		c-0.9-0.4-1.8-0.5-6.1,0.9c-4.3,1.4-5,2-5.5,2.8c-0.4,0.7-0.6,1.7-0.2,2.8c0.4,1.3,1.1,2.1,1.8,2.5c0.9,0.5,1.9,0.5,2.8,0.2
		l0.3-0.1l-1.2-3.8l4.8-1.5l3.2,10.1l-3.3,1C41.1,220,38.7,220,36.2,218.6z"/>
	<path d="M46.4,244.5l5.5-8.8l-1.1-1.9l-7.9,4.7l-3.4-5.7l21.3-12.5l5.5,9.3c3.1,5.2,1.4,10-2.1,12c-2.9,1.7-5.9,0.8-7.8-0.5
		l-5.9,10.3L46.4,244.5z M61.4,232l-1.9-3.3l-4.3,2.5l1.9,3.3c0.9,1.6,2.5,1.9,3.6,1.2C61.8,235.1,62.3,233.5,61.4,232z"/>
	<path d="M56.7,258.8l18.8-16l4.3,5.1l-18.8,16L56.7,258.8z"/>
	<path d="M68.8,272.3l16-18.8l5.1,4.3l-12.5,14.7l8.7,7.4l-3.5,4.1L68.8,272.3z"/>
	<path d="M91.2,289.8l12-21.5l5.8,3.3l-9.4,16.8l10,5.6l-2.6,4.7L91.2,289.8z"/>
	<path d="M116.7,302.7l7.4-23.5l17.6,5.5l-1.6,5.2l-11.2-3.5l-1.2,3.9l9.6,3l-1.6,5.2l-9.6-3l-1.3,4.1l11.2,3.5l-1.6,5.2
		L116.7,302.7z"/>
	<path d="M163.4,309.7c-2,1.5-4.7,2-7.5,1.8l-10-0.9L148,286l10,0.9c2.8,0.2,5.4,1.2,7.1,3.1c2.9,3.1,2.3,6.3,1.9,10.1
		C166.7,303.9,166.8,307.1,163.4,309.7z M160.2,293.9c-0.5-0.9-1.4-1.5-3.1-1.7l-2.9-0.3l-1.2,13.8l2.9,0.3c1.7,0.1,2.6-0.3,3.3-1.1
		c0.6-0.6,0.8-1.3,1.2-5.5C160.8,295.3,160.7,294.6,160.2,293.9z"/>
	<path d="M201,308.4c-3.1,0.7-5.6,0.3-8-1c-3.4-1.9-4-5.3-4.8-8.9c-0.8-3.6-1.7-7,0.5-10.1c1.5-2.2,3.7-3.7,6.7-4.4
		c5-1.1,9.6,0.5,11.8,5.6l-6.6,1.5c-0.7-1.3-1.8-2.3-4-1.8c-1.2,0.3-2,0.9-2.3,1.6c-0.4,0.8-0.7,1.8,0.4,6.2c1,4.4,1.6,5.1,2.4,5.7
		c0.6,0.5,1.6,0.7,2.8,0.4c2.2-0.5,2.7-1.9,2.8-3.3l6.6-1.5C209.4,303.8,206,307.3,201,308.4z"/>
	<path d="M233.6,296.4l-4.2-8.8l-6.4,3.1l4.2,8.8l-6,2.9l-10.7-22.3l6-2.9l4.1,8.6l6.4-3.1l-4.1-8.6l6-2.9l10.7,22.3L233.6,296.4z"
		/>
	<path d="M250.1,286.8l-15.3-19.4l14.5-11.4l3.3,4.3l-9.3,7.3l2.6,3.2l7.9-6.2l3.3,4.3l-7.9,6.2l2.7,3.4l9.3-7.3l3.3,4.3
		L250.1,286.8z"/>
	<path d="M272.9,267.1L254,251.3l11.8-14.2l4.2,3.5l-7.6,9l3.2,2.6l6.5-7.7l4.2,3.5l-6.5,7.7l3.3,2.8l7.5-9l4.2,3.5L272.9,267.1z"/>
	<path d="M295.4,235.9c-1.9,3.7-4.1,6.4-7.7,7.6l-1.4-5.6c1.8-0.7,3.3-2.6,4.4-4.6c1.2-2.3,1.1-3.8-0.2-4.5c-0.5-0.3-1-0.4-1.5-0.2
		c-0.4,0.2-0.9,0.6-1.4,1.3l-1.9,2.7c-1.4,2-2.9,3.3-4.5,3.8c-1.6,0.6-3.4,0.3-5.3-0.7c-4-2.1-5.2-6.9-2.3-12.4
		c1.8-3.4,3.9-5.7,6.9-6.7l1.4,5.5c-2.2,0.8-3.1,2.8-3.7,3.9c-1.1,2.1-0.5,3.5,0.5,4c0.3,0.1,0.7,0.3,1.3,0.1c0.4-0.2,1-0.5,1.5-1.3
		l1.9-2.7c1.4-2,2.8-3.2,4.3-3.8c1.8-0.7,3.7-0.3,5.7,0.7C297.8,225.3,298,230.8,295.4,235.9z"/>
	<path d="M304.1,216.3l-23.7-6.8l5.1-17.7l5.2,1.5l-3.2,11.3l4,1.1l2.8-9.7l5.2,1.5l-2.8,9.7l4.2,1.2l3.2-11.3l5.2,1.5L304.1,216.3z
		"/>
</g>
<g>
	<circle cx="35.6" cy="168.3" r="9"/>
	<circle cx="298.5" cy="168.3" r="9"/>
</g>
<g id="spatula_4_">
	<g>
		<path fill="none" d="M150.8,99.1c-3.1,0-5.6,2.1-5.6,4.7c0,0,0,0.1,0,0.1c0,0.1,0,0.2,0,0.3L148,153c0.1,1.8,2,3.3,4.2,3.3h0.2
			c2.2,0,4-1.5,4-3.3v-48.8c0-0.1,0-0.1,0-0.2c0-0.1,0-0.1,0-0.2C156.4,101.2,153.9,99.1,150.8,99.1z"/>
		<path fill="none" d="M168.3,99.1c-2.6,0-4.7,1.8-4.7,3.9v48.8c0,0.1,0,0.2,0,0.2c0,0.1,0,0.2,0,0.2c0,2.2,2.1,3.9,4.7,3.9
			c2.6,0,4.7-1.8,4.7-3.9c0-0.1,0-0.2,0-0.2c0-0.1,0-0.2,0-0.2V103C173.1,100.8,170.9,99.1,168.3,99.1z"/>
		<path fill="none" d="M185.9,99.1c-3.1,0-5.6,2.1-5.6,4.7c0,0.1,0,0.1,0,0.2c0,0.1,0,0.1,0,0.2v48.8c0,1.8,1.8,3.3,4,3.3h0.2
			c2.2,0,4.1-1.5,4.2-3.3l2.9-48.8c0-0.1,0-0.2,0-0.3c0,0,0-0.1,0-0.1C191.5,101.2,189,99.1,185.9,99.1z"/>
		<path d="M139.2,159.7c0-0.1,0-0.1-0.1-0.2C139.2,159.5,139.2,159.6,139.2,159.7z"/>
		<path d="M197.6,158.9c0,0.2-0.1,0.4-0.1,0.6C197.5,159.3,197.5,159.1,197.6,158.9z"/>
		<path d="M197.5,159.5c0,0.1,0,0.1-0.1,0.2C197.4,159.6,197.4,159.5,197.5,159.5z"/>
		<path d="M139.2,159.5c0-0.2-0.1-0.4-0.1-0.6C139.1,159.1,139.1,159.3,139.2,159.5z"/>
	</g>
	<g>
		<path fill="none" d="M168.3,99.1c-2.6,0-4.7,1.8-4.7,3.9v48.8c0,0.1,0,0.2,0,0.2c0,0.1,0,0.2,0,0.2c0,2.2,2.1,3.9,4.7,3.9
			c2.6,0,4.7-1.8,4.7-3.9c0-0.1,0-0.2,0-0.2c0-0.1,0-0.2,0-0.2V103C173.1,100.8,170.9,99.1,168.3,99.1z"/>
		<path fill="none" d="M168.3,241.8c-1.8,0-3.2,1.2-3.2,2.7v1.2c0,1.5,1.4,2.7,3.2,2.7c1.8,0,3.2-1.2,3.2-2.7v-1.2
			C171.5,243,170.1,241.8,168.3,241.8z"/>
		<path fill="none" d="M185.9,99.1c-3.1,0-5.6,2.1-5.6,4.7c0,0.1,0,0.1,0,0.2c0,0.1,0,0.1,0,0.2v48.8c0,1.8,1.8,3.3,4,3.3h0.2
			c2.2,0,4.1-1.5,4.2-3.3l2.9-48.8c0-0.1,0-0.2,0-0.3c0,0,0-0.1,0-0.1C191.5,101.2,189,99.1,185.9,99.1z"/>
		<path fill="none" d="M150.8,99.1c-3.1,0-5.6,2.1-5.6,4.7c0,0,0,0.1,0,0.1c0,0.1,0,0.2,0,0.3L148,153c0.1,1.8,2,3.3,4.2,3.3h0.2
			c2.2,0,4-1.5,4-3.3v-48.8c0-0.1,0-0.1,0-0.2c0-0.1,0-0.1,0-0.2C156.4,101.2,153.9,99.1,150.8,99.1z"/>
		<g>
			<path fill="none" d="M168.3,99.1c-2.6,0-4.7,1.8-4.7,3.9v48.8c0,0.1,0,0.2,0,0.2c0,0.1,0,0.2,0,0.2c0,2.2,2.1,3.9,4.7,3.9
				c2.6,0,4.7-1.8,4.7-3.9c0-0.1,0-0.2,0-0.2c0-0.1,0-0.2,0-0.2V103C173.1,100.8,170.9,99.1,168.3,99.1z"/>
			<path fill="none" d="M165.1,244.4v1.2c0,1.5,1.4,2.7,3.2,2.7c1.8,0,3.2-1.2,3.2-2.7v-1.2c0-1.5-1.4-2.7-3.2-2.7
				C166.5,241.8,165.1,243,165.1,244.4z"/>
			<path fill="none" d="M150.8,99.1c-3.1,0-5.6,2.1-5.6,4.7c0,0,0,0.1,0,0.1c0,0.1,0,0.2,0,0.3L148,153c0.1,1.8,2,3.3,4.2,3.3h0.2
				c2.2,0,4-1.5,4-3.3v-48.8c0-0.1,0-0.1,0-0.2c0-0.1,0-0.1,0-0.2C156.4,101.2,153.9,99.1,150.8,99.1z"/>
			<path fill="none" d="M185.9,99.1c-3.1,0-5.6,2.1-5.6,4.7c0,0.1,0,0.1,0,0.2c0,0.1,0,0.1,0,0.2v48.8c0,1.8,1.8,3.3,4,3.3h0.2
				c2.2,0,4.1-1.5,4.2-3.3l2.9-48.8c0-0.1,0-0.2,0-0.3c0,0,0-0.1,0-0.1C191.5,101.2,189,99.1,185.9,99.1z"/>
		</g>
	</g>
	<path d="M186.3,89.4h-10.3h-7.3h-0.3H168h-7.3h-10.4l-3.5,0c-8.9,0-15.3,6-14.2,13.3l0,0.1l6.4,56.1c0,0.2,0.1,0.4,0.1,0.6
		c0,0.1,0,0.1,0.1,0.2c0,0.1,0.1,0.3,0.1,0.4c0,0.1,0.1,0.2,0.1,0.2c0,0.1,0.1,0.2,0.1,0.3c0,0.1,0.1,0.2,0.1,0.2
		c0,0,0.1,0.1,0.1,0.1c0,0,0.1,0.1,0.1,0.1c0,0.1,0.1,0.2,0.2,0.2c0.1,0.1,0.1,0.2,0.2,0.3c0.1,0.1,0.1,0.2,0.2,0.2
		c0.1,0.1,0.1,0.2,0.2,0.3c0.1,0.1,0.1,0.2,0.2,0.2c0.1,0.1,0.1,0.2,0.2,0.2c0.1,0.1,0.2,0.1,0.2,0.2c0.1,0.1,0.2,0.1,0.2,0.2
		c0.1,0.1,0.2,0.1,0.3,0.2c0.1,0.1,0.2,0.1,0.3,0.2c0.1,0.1,0.2,0.1,0.3,0.2c0.1,0.1,0.2,0.1,0.3,0.2c0.1,0.1,0.2,0.1,0.3,0.2
		c0.1,0.1,0.2,0.1,0.3,0.2l12.8,7.2l0,0c4.8,2.8,7.5,7.4,7.1,12.3v0c0,0.1,0,0.1,0,0.1l0,0l-0.1,1l-0.2,3l-0.1,0.7l-0.3,4.2l-3,36.7
		v0c-0.3,2.7-0.5,5.4-0.7,8.1c-0.1,2.7-0.1,5.4,0,8.1v1.7c0,4.5,4.4,8.1,9.8,8.1c5.4,0,9.7-3.6,9.7-8.1v-1.7c0.1-2.7,0.1-5.4,0-8.1
		c-0.1-2.7-0.3-5.4-0.7-8.1v0l-3-36.7l-0.3-4.2l-0.1-0.7l-0.2-3l-0.1-1l0,0c0,0,0-0.1,0-0.1v0c-0.4-4.8,2.3-9.5,7.1-12.3l0,0
		l12.8-7.2c0.1-0.1,0.2-0.1,0.3-0.2c0.1-0.1,0.2-0.1,0.3-0.2c0.1-0.1,0.2-0.1,0.3-0.2c0.1-0.1,0.2-0.1,0.3-0.2
		c0.1-0.1,0.2-0.1,0.3-0.2c0.1-0.1,0.2-0.1,0.3-0.2c0.1-0.1,0.2-0.1,0.2-0.2c0.1-0.1,0.2-0.1,0.2-0.2c0.1-0.1,0.1-0.2,0.2-0.2
		c0.1-0.1,0.1-0.2,0.2-0.2c0.1-0.1,0.1-0.2,0.2-0.3c0.1-0.1,0.1-0.2,0.2-0.2c0.1-0.1,0.1-0.2,0.2-0.3c0-0.1,0.1-0.2,0.2-0.2
		c0,0,0.1-0.1,0.1-0.1s0.1-0.1,0.1-0.1c0-0.1,0.1-0.2,0.1-0.2c0.1-0.1,0.1-0.2,0.1-0.3c0-0.1,0.1-0.2,0.1-0.2c0-0.1,0.1-0.2,0.1-0.4
		c0-0.1,0-0.1,0.1-0.2c0-0.2,0.1-0.4,0.1-0.6l6.4-56.1l0-0.1c1-7.3-5.3-13.3-14.2-13.3L186.3,89.4z M156.4,104.2v48.8
		c0,1.8-1.8,3.3-4,3.3h-0.2c-2.2,0-4.1-1.5-4.2-3.3l-2.9-48.8c0-0.1,0-0.2,0-0.3c0,0,0-0.1,0-0.1c0-2.6,2.5-4.7,5.6-4.7
		c3.1,0,5.6,2.1,5.6,4.7c0,0.1,0,0.1,0,0.2C156.4,104,156.4,104.1,156.4,104.2z M171.5,245.7c0,1.5-1.4,2.7-3.2,2.7
		c-1.8,0-3.2-1.2-3.2-2.7v-1.2c0-1.5,1.4-2.7,3.2-2.7c1.8,0,3.2,1.2,3.2,2.7V245.7z M173.1,151.9c0,0.1,0,0.2,0,0.2
		c0,0.1,0,0.2,0,0.2c0,2.2-2.1,3.9-4.7,3.9c-2.6,0-4.7-1.8-4.7-3.9c0-0.1,0-0.2,0-0.2c0-0.1,0-0.2,0-0.2V103c0-2.2,2.1-3.9,4.7-3.9
		c2.6,0,4.7,1.8,4.7,3.9L173.1,151.9L173.1,151.9z M191.5,104.2l-2.9,48.8c-0.1,1.8-2,3.3-4.2,3.3h-0.2c-2.2,0-4-1.5-4-3.3v-48.8
		c0-0.1,0-0.1,0-0.2c0-0.1,0-0.1,0-0.2c0-2.6,2.5-4.7,5.6-4.7c3.1,0,5.6,2.1,5.6,4.7c0,0,0,0.1,0,0.1
		C191.5,103.9,191.5,104.1,191.5,104.2z"/>
</g>
</svg>
